<mxfile host="Electron" modified="2024-01-10T13:39:28.280Z" agent="Mozilla/5.0 (Macintosh; Intel Mac OS X 10_15_7) AppleWebKit/537.36 (KHTML, like Gecko) draw.io/22.1.16 Chrome/120.0.6099.109 Electron/28.1.0 Safari/537.36" etag="ksk0iSzqg0ux-0ojwEVj" version="22.1.16" type="device">
  <diagram name="Page-1" id="3BWQjtUx21HL0v3SDL0n">
    <mxGraphModel dx="1781" dy="727" grid="1" gridSize="10" guides="1" tooltips="1" connect="1" arrows="1" fold="1" page="1" pageScale="1" pageWidth="827" pageHeight="1169" math="0" shadow="0">
      <root>
        <mxCell id="0" />
        <mxCell id="1" parent="0" />
        <mxCell id="ZjQE07w77ViL9WWXSrRC-1" value="AWS Account" style="points=[[0,0],[0.25,0],[0.5,0],[0.75,0],[1,0],[1,0.25],[1,0.5],[1,0.75],[1,1],[0.75,1],[0.5,1],[0.25,1],[0,1],[0,0.75],[0,0.5],[0,0.25]];outlineConnect=0;gradientColor=none;html=1;whiteSpace=wrap;fontSize=12;fontStyle=0;container=1;pointerEvents=0;collapsible=0;recursiveResize=0;shape=mxgraph.aws4.group;grIcon=mxgraph.aws4.group_account;strokeColor=#CD2264;fillColor=none;verticalAlign=top;align=left;spacingLeft=30;fontColor=#CD2264;dashed=0;" vertex="1" parent="1">
          <mxGeometry x="-120" y="200" width="263" height="230" as="geometry" />
        </mxCell>
        <mxCell id="ZjQE07w77ViL9WWXSrRC-2" value="" style="outlineConnect=0;dashed=0;verticalLabelPosition=bottom;verticalAlign=top;align=center;html=1;shape=mxgraph.aws3.ec2;fillColor=#F58534;gradientColor=none;" vertex="1" parent="ZjQE07w77ViL9WWXSrRC-1">
          <mxGeometry x="120" y="30" width="60" height="60" as="geometry" />
        </mxCell>
        <mxCell id="ZjQE07w77ViL9WWXSrRC-5" value="" style="outlineConnect=0;dashed=0;verticalLabelPosition=bottom;verticalAlign=top;align=center;html=1;shape=mxgraph.aws3.ec2;fillColor=#F58534;gradientColor=none;" vertex="1" parent="ZjQE07w77ViL9WWXSrRC-1">
          <mxGeometry x="20" y="140" width="60" height="60" as="geometry" />
        </mxCell>
        <mxCell id="ZjQE07w77ViL9WWXSrRC-4" value="" style="outlineConnect=0;dashed=0;verticalLabelPosition=bottom;verticalAlign=top;align=center;html=1;shape=mxgraph.aws3.ec2;fillColor=#F58534;gradientColor=none;" vertex="1" parent="ZjQE07w77ViL9WWXSrRC-1">
          <mxGeometry x="190" y="140" width="60" height="60" as="geometry" />
        </mxCell>
        <mxCell id="ZjQE07w77ViL9WWXSrRC-6" value="" style="endArrow=classic;startArrow=classic;html=1;rounded=0;exitX=0.5;exitY=0;exitDx=0;exitDy=0;exitPerimeter=0;" edge="1" parent="ZjQE07w77ViL9WWXSrRC-1" source="ZjQE07w77ViL9WWXSrRC-5">
          <mxGeometry width="50" height="50" relative="1" as="geometry">
            <mxPoint x="70" y="130" as="sourcePoint" />
            <mxPoint x="120" y="80" as="targetPoint" />
          </mxGeometry>
        </mxCell>
        <mxCell id="ZjQE07w77ViL9WWXSrRC-8" value="" style="endArrow=classic;startArrow=classic;html=1;rounded=0;" edge="1" parent="ZjQE07w77ViL9WWXSrRC-1">
          <mxGeometry width="50" height="50" relative="1" as="geometry">
            <mxPoint x="170" y="80" as="sourcePoint" />
            <mxPoint x="210" y="150" as="targetPoint" />
          </mxGeometry>
        </mxCell>
        <mxCell id="ZjQE07w77ViL9WWXSrRC-10" value="SLAVE-DEV" style="text;html=1;align=center;verticalAlign=middle;resizable=0;points=[];autosize=1;strokeColor=none;fillColor=none;" vertex="1" parent="ZjQE07w77ViL9WWXSrRC-1">
          <mxGeometry x="5" y="200" width="90" height="30" as="geometry" />
        </mxCell>
        <mxCell id="ZjQE07w77ViL9WWXSrRC-11" value="SLAVE-PROD" style="text;html=1;align=center;verticalAlign=middle;resizable=0;points=[];autosize=1;strokeColor=none;fillColor=none;" vertex="1" parent="ZjQE07w77ViL9WWXSrRC-1">
          <mxGeometry x="163" y="200" width="100" height="30" as="geometry" />
        </mxCell>
        <mxCell id="ZjQE07w77ViL9WWXSrRC-12" value="JENKINS_MASTER" style="text;html=1;align=center;verticalAlign=middle;resizable=0;points=[];autosize=1;strokeColor=none;fillColor=none;" vertex="1" parent="ZjQE07w77ViL9WWXSrRC-1">
          <mxGeometry x="95" y="8" width="130" height="30" as="geometry" />
        </mxCell>
        <mxCell id="ZjQE07w77ViL9WWXSrRC-13" value="AWS Account" style="points=[[0,0],[0.25,0],[0.5,0],[0.75,0],[1,0],[1,0.25],[1,0.5],[1,0.75],[1,1],[0.75,1],[0.5,1],[0.25,1],[0,1],[0,0.75],[0,0.5],[0,0.25]];outlineConnect=0;gradientColor=none;html=1;whiteSpace=wrap;fontSize=12;fontStyle=0;container=1;pointerEvents=0;collapsible=0;recursiveResize=0;shape=mxgraph.aws4.group;grIcon=mxgraph.aws4.group_account;strokeColor=#CD2264;fillColor=none;verticalAlign=top;align=left;spacingLeft=30;fontColor=#CD2264;dashed=0;" vertex="1" parent="1">
          <mxGeometry x="670" y="40" width="130" height="130" as="geometry" />
        </mxCell>
        <mxCell id="ZjQE07w77ViL9WWXSrRC-29" value="" style="outlineConnect=0;dashed=0;verticalLabelPosition=bottom;verticalAlign=top;align=center;html=1;shape=mxgraph.aws3.ec2;fillColor=#F58534;gradientColor=none;" vertex="1" parent="ZjQE07w77ViL9WWXSrRC-13">
          <mxGeometry x="23.5" y="30" width="76.5" height="93" as="geometry" />
        </mxCell>
        <mxCell id="ZjQE07w77ViL9WWXSrRC-14" value="AWS Account" style="points=[[0,0],[0.25,0],[0.5,0],[0.75,0],[1,0],[1,0.25],[1,0.5],[1,0.75],[1,1],[0.75,1],[0.5,1],[0.25,1],[0,1],[0,0.75],[0,0.5],[0,0.25]];outlineConnect=0;gradientColor=none;html=1;whiteSpace=wrap;fontSize=12;fontStyle=0;container=1;pointerEvents=0;collapsible=0;recursiveResize=0;shape=mxgraph.aws4.group;grIcon=mxgraph.aws4.group_account;strokeColor=#CD2264;fillColor=none;verticalAlign=top;align=left;spacingLeft=30;fontColor=#CD2264;dashed=0;" vertex="1" parent="1">
          <mxGeometry x="670" y="430" width="130" height="130" as="geometry" />
        </mxCell>
        <mxCell id="ZjQE07w77ViL9WWXSrRC-30" value="" style="outlineConnect=0;dashed=0;verticalLabelPosition=bottom;verticalAlign=top;align=center;html=1;shape=mxgraph.aws3.ec2;fillColor=#F58534;gradientColor=none;" vertex="1" parent="ZjQE07w77ViL9WWXSrRC-14">
          <mxGeometry x="26.75" y="25" width="76.5" height="93" as="geometry" />
        </mxCell>
        <mxCell id="ZjQE07w77ViL9WWXSrRC-15" value="HSK&amp;nbsp;672905109278" style="text;html=1;align=center;verticalAlign=middle;resizable=0;points=[];autosize=1;strokeColor=none;fillColor=none;" vertex="1" parent="1">
          <mxGeometry x="665" y="8" width="130" height="30" as="geometry" />
        </mxCell>
        <mxCell id="ZjQE07w77ViL9WWXSrRC-16" value="sivavuyyuru&amp;nbsp;207091384757" style="text;html=1;align=center;verticalAlign=middle;resizable=0;points=[];autosize=1;strokeColor=none;fillColor=none;" vertex="1" parent="1">
          <mxGeometry x="650" y="400" width="170" height="30" as="geometry" />
        </mxCell>
        <mxCell id="ZjQE07w77ViL9WWXSrRC-17" value="HSK_K8S&amp;nbsp;718101282320" style="text;html=1;align=center;verticalAlign=middle;resizable=0;points=[];autosize=1;strokeColor=none;fillColor=none;" vertex="1" parent="1">
          <mxGeometry x="-120" y="170" width="160" height="30" as="geometry" />
        </mxCell>
        <mxCell id="ZjQE07w77ViL9WWXSrRC-22" value="" style="shape=link;html=1;rounded=0;" edge="1" parent="1">
          <mxGeometry width="100" relative="1" as="geometry">
            <mxPoint x="130" y="370" as="sourcePoint" />
            <mxPoint x="550" y="370" as="targetPoint" />
          </mxGeometry>
        </mxCell>
        <mxCell id="ZjQE07w77ViL9WWXSrRC-23" value="" style="shape=link;html=1;rounded=0;" edge="1" parent="1">
          <mxGeometry width="100" relative="1" as="geometry">
            <mxPoint x="550" y="120" as="sourcePoint" />
            <mxPoint x="550" y="370" as="targetPoint" />
          </mxGeometry>
        </mxCell>
        <mxCell id="ZjQE07w77ViL9WWXSrRC-24" value="" style="shape=link;html=1;rounded=0;entryX=0;entryY=0.615;entryDx=0;entryDy=0;entryPerimeter=0;" edge="1" parent="1" target="ZjQE07w77ViL9WWXSrRC-13">
          <mxGeometry width="100" relative="1" as="geometry">
            <mxPoint x="550" y="120" as="sourcePoint" />
            <mxPoint x="650" y="120" as="targetPoint" />
          </mxGeometry>
        </mxCell>
        <mxCell id="ZjQE07w77ViL9WWXSrRC-25" value="" style="shape=link;html=1;rounded=0;" edge="1" parent="1">
          <mxGeometry width="100" relative="1" as="geometry">
            <mxPoint x="-70" y="550" as="sourcePoint" />
            <mxPoint x="670" y="550" as="targetPoint" />
          </mxGeometry>
        </mxCell>
        <mxCell id="ZjQE07w77ViL9WWXSrRC-26" value="" style="shape=link;html=1;rounded=0;" edge="1" parent="1">
          <mxGeometry width="100" relative="1" as="geometry">
            <mxPoint x="-72" y="550" as="sourcePoint" />
            <mxPoint x="-72" y="430" as="targetPoint" />
          </mxGeometry>
        </mxCell>
        <mxCell id="ZjQE07w77ViL9WWXSrRC-27" value="PRODUCTION ENVIRONMENT DEPLOYMENT" style="text;html=1;align=center;verticalAlign=middle;resizable=0;points=[];autosize=1;strokeColor=none;fillColor=none;" vertex="1" parent="1">
          <mxGeometry x="210" y="330" width="280" height="30" as="geometry" />
        </mxCell>
        <mxCell id="ZjQE07w77ViL9WWXSrRC-28" value="Development ENVIRONMENT DEPLOYMENT" style="text;html=1;align=center;verticalAlign=middle;resizable=0;points=[];autosize=1;strokeColor=none;fillColor=none;" vertex="1" parent="1">
          <mxGeometry x="240" y="518" width="270" height="30" as="geometry" />
        </mxCell>
        <mxCell id="ZjQE07w77ViL9WWXSrRC-31" value="" style="shape=flexArrow;endArrow=classic;html=1;rounded=0;fillColor=#f8cecc;strokeColor=#b85450;" edge="1" parent="1">
          <mxGeometry width="50" height="50" relative="1" as="geometry">
            <mxPoint x="570" y="550" as="sourcePoint" />
            <mxPoint x="670" y="550" as="targetPoint" />
          </mxGeometry>
        </mxCell>
        <mxCell id="ZjQE07w77ViL9WWXSrRC-32" value="" style="shape=flexArrow;endArrow=classic;html=1;rounded=0;fillColor=#f8cecc;strokeColor=#b85450;" edge="1" parent="1">
          <mxGeometry width="50" height="50" relative="1" as="geometry">
            <mxPoint x="570" y="120" as="sourcePoint" />
            <mxPoint x="670" y="120" as="targetPoint" />
          </mxGeometry>
        </mxCell>
      </root>
    </mxGraphModel>
  </diagram>
</mxfile>
